<svg xmlns="http://www.w3.org/2000/svg" width="300mm" height="300mm" viewBox="0 0 300 300"><g transform="translate(0 3)"><path fill="#fedbab" stroke="#242424" stroke-width="5" d="m 20.814136,294.63487 1.22e-4,-1.1e-4 c 0,-43.7072 -1.294988,-69.16661 -1.294988,-82.97662 1.784237,-14.10188 24.058681,-27.8827 66.823219,-31.41536 17.928941,-2.21905 34.332551,-2.97819 49.182171,-2.27751 43.57038,4.20447 68.31972,14.56924 74.24814,31.03595 -0.63314,54.42252 -0.25917,84.7577 -0.25917,84.7577 -13.2956,1.22618 -47.25398,-0.29167 -82.42112,-0.40848"/><path fill="#5bd457" stroke="#242424" stroke-width="5" d="m 18.310533,276.47451 c 0,-37.02119 -1.323784,-58.5975 -1.323784,-70.30527 1.813011,-11.9414 24.778148,-23.62009 68.895357,-26.59817 18.504404,-1.89768 35.397294,-2.54 50.736164,-1.95614 44.9229,3.59122 70.44936,12.35019 76.57907,26.30608 -0.6619,46.10142 -0.25886,71.82354 -0.25886,71.82354 -13.72725,1.02194 -48.77925,-0.26228 -85.03994,-0.35002 -50.24695,-0.1461 -98.162914,2.30658 -109.587899,1.08019 z"/><path fill="#fedbab" stroke="#242424" stroke-width="5" d="M 96.443694,211.13264 H 133.71167 V 98.755145 H 96.443694 Z"/><path fill="#6de069" d="M 46.858621,296.03622 H 185.59895 c 2.1951,-14.40405 0,-32.46659 0,-48.69988 H 46.858621 c 7.47621,15.60274 -5.182118,33.31637 0,48.69988 z"/><path fill="#5bd457" d="m 64.960238,212.388 c 8.575968,-12.23328 17.928904,-21.9848 28.145167,-29.25488 11.424985,14.80266 23.540695,26.39371 23.540695,26.39371 14.07261,-13.81 18.6484,-27.82424 18.6484,-27.82424 11.82782,0.35002 16.25969,14.62728 13.35311,42.80218 -45.29711,10.53994 -73.183275,6.51074 -83.687372,-12.11677 z"/><path fill="#6de069" d="m 34.483951,270.08058 c -3.741195,-9.9269 -1.467671,-17.07996 -1.007215,-29.10899 0.230077,-6.45249 -0.316569,-18.30636 3.338283,-22.97767 2.503725,-3.24099 5.439096,-6.74447 9.928473,-7.41607 7.597477,-1.13855 19.56929,-2.97798 36.980205,-3.41606 12.863878,-0.32074 23.626993,0.8176 34.361313,0.73038 25.12345,-0.1462 45.38339,-0.58418 58.04586,3.82464 4.31681,1.51817 7.22339,1.343 10.07243,3.85403 3.82751,3.38667 3.45342,9.10931 4.66206,14.77328 2.12962,9.89772 4.05776,23.29903 5.72696,39.97019 0.0293,0.20404 -67.22623,0.64253 -73.356,1.7519 -7.48236,1.37218 -88.349434,-0.9343 -88.752369,-1.98542 z"/><path fill="#fbd8a9" d="m 117.34353,209.4393 c 20.03521,0.84667 28.17542,-13.16768 26.18771,-28.84618 -12.68369,-3.0949 -30.22629,-2.77374 -52.627778,0.96337 -2.774794,23.16669 11.734908,29.34901 26.440068,27.88281 z"/><path fill="#89f285" d="m 57.247634,293.35253 c -5.122581,-14.41206 -4.287962,-33.9012 11.367459,-43.7824 4.230356,-2.66382 11.597672,-4.57635 24.173757,-4.9178 65.47073,-1.73025 76.98204,-0.13626 81.55778,48.88237 0.0293,0.15928 -48.57784,0.52405 -53.00969,1.36601 -5.41032,1.04746 -63.830343,-0.7285 -64.089306,-1.54818 z"/><path fill="#ffe8bd" d="m 100.64536,184.79738 c -1.726712,0.49622 7.62624,32.05779 25.44001,10.07279 1.29507,-1.63498 7.16584,-9.43047 4.77724,-10.94885 -10.64804,-6.94871 -0.69069,-14.04331 -12.00058,-16.20401 -21.785227,-4.20426 -9.84218,14.68595 -18.21667,17.08007 z"/><path fill="#ffefc2" d="m 106.68878,185.90675 c 1.20874,0.0878 17.43967,-0.29241 18.33183,0.38003 1.61155,1.16794 -8.86373,23.09459 -18.04402,6.33568 -0.69069,-1.28464 -2.3023,-6.80283 -0.28778,-6.7153 z"/><path fill="none" stroke="#242424" stroke-width="5" d="m 18.35138,294.8872 218.16884,0"/><path fill="#3f4751" stroke="#242424" stroke-width="5" d="m 212.03017,256.29976 13.81358,0.23394 6.36007,37.37153 h -24.60554 z"/><path fill="none" stroke="#242424" stroke-width="5" d="M190.69271 232.55459c-2.64756 3.16925-6.41755 24.2599-7.7414 28.83155 6.33127 20.4455 4.94996 23.67091 5.84202 34.10408M44.498814 231.92064c2.618857 3.26996 5.640564 21.9849 6.993103 26.74395-6.331135 21.3135-7.223305 24.64203-8.115466 35.50302"/><path fill="#eaeef5" stroke="#242424" stroke-width="5" d="M 155.82608,276.18263 H 283.97595 V 191.68774 H 155.82608 Z"/><text x="185.446" y="241.197" fill="#242424" stroke-width="5" font-family="Kalinga" font-size="68.409" style="line-height:1.25;-inkscape-font-specification:'Kalinga Bold'" font-weight="700" letter-spacing="0" transform="scale(.92247 1.08405)" word-spacing="0"><tspan x="185.446" y="241.197" style="-inkscape-font-specification:'Kalinga Bold'">&lt;/&gt;</tspan></text><path fill="#ec985d" d="m 98.85275,153.40556 c 10.92827,3.57114 19.3716,4.14096 32.53225,1.0082 l -0.10891,10.35065 c -9.99032,2.21884 -21.37721,3.75793 -32.289695,-0.0668 z"/><path fill="#f6cf7f" stroke="#242424" stroke-width="5" d="m 114.59168,1.8346607 c 90.11194,0 71.58594,128.6174793 64.80247,170.7679293 -6.91192,-8.50819 -24.61569,-19.80936 -34.91935,-25.73393 -35.25334,-20.25298 -72.922029,3.81052 -90.702865,25.99506 C 43.545358,127.0593 29.33606,1.8346607 114.59168,1.8346607 Z"/><path fill="#f6bd7f" d="m 183.05536,100.66672 c 1.13055,17.82571 -4.98656,66.08588 -5.75738,66.19036 -7.24593,-9.47397 -39.65798,-29.0971 -60.88198,-31.31542 -5.75565,-0.60049 -9.14739,2.06166 -14.00371,2.8187 -24.898316,3.88875 -41.260194,22.97714 -47.272801,28.87568 -4.861339,-19.25329 -8.103259,-63.53136 -6.227228,-62.81748 49.436905,14.53734 100.713989,12.92549 134.143099,-3.75184 z"/><path fill="#fedbab" stroke="#242424" stroke-width="5" d="m 117.13546,22.322729 v 0 c 24.23028,0 44.06677,20.148607 44.06677,44.760204 v 43.846917 c 0,24.63785 -19.83649,44.76042 -44.06677,44.76042 v 0 c -24.255995,0 -44.092435,-20.12257 -44.092435,-44.76042 V 67.082933 c 0,-24.611597 19.83644,-44.760204 44.092435,-44.760204 z"/><path fill="#ffe8bd" d="m 149.17704,84.70001 c 0,4.932861 1.28472,37.24384 -1.07924,40.27128 -10.74045,13.83269 -14.3377,20.07049 -34.91933,19.41792 C 101.53871,144.04954 84.759916,124.68422 83.963337,114.19239 82.93559,100.93372 78.721601,72.694404 92.237132,64.394849 110.76315,53.041603 120.16745,57.165236 140.10668,58.60068 c 9.81549,0.730794 9.07036,18.504425 9.07036,26.09933 z"/><path fill="#ffefc2" d="m 138.69345,92.425534 c 0,3.314614 -1.90138,26.699506 -2.2097,27.221666 -6.1925,10.20466 -8.65919,14.17184 -22.94552,13.75426 -8.06819,-0.26134 -19.708035,-13.2846 -20.273319,-20.35745 -0.719456,-8.92598 -3.648694,-27.952458 5.729981,-33.53768 12.873158,-7.673234 17.344008,-5.037125 31.219238,-4.045408 6.80921,0.469662 8.47932,11.849052 8.47932,16.964612 z"/><path fill="#ec985d" d="m 144.16058,38.008347 c -50.450107,23.463325 -73.888913,37.83465 -68.846541,43.941927 0,0 0.34694,9.200462 0.34694,14.733603 18.333751,-3.75834 39.150091,-12.9234 50.269321,-28.844005 -0.18115,7.881973 -3.10303,10.648596 -3.85292,18.582754 35.7624,-10.309134 33.7713,-19.678945 35.19352,-21.140429 -0.28445,-5.428667 0.56889,-10.80515 -0.98263,-14.459121 -3.56849,-8.24737 -10.24,-11.849052 -12.12769,-12.814729 z"/><path fill="#f6cf7f" d="m 68.485073,86.67144 c 6.997235,7.049982 20.079335,-1.818493 29.481977,-4.502961 5.65287,-4.593608 12.05095,-3.784484 18.14065,-13.232415 0.0771,-0.104579 13.73676,-18.61057 15.7667,-15.530839 5.57576,8.482358 2.16833,13.495114 2.16833,22.812531 7.63132,0 32.81237,-22.549832 33.17206,-28.813663 0.33405,-6.394345 -16.26486,-26.464727 -23.66497,-27.012823 -4.5994,-0.339775 -6.39801,-2.897032 -9.19874,-3.392943 -12.74466,-2.322792 -12.7961,-3.15806 -34.2256,3.914999 -11.357194,3.732195 -20.658684,8.221225 -26.671333,17.538747 -5.241726,8.116856 -10.611979,34.216082 -4.419482,43.011652 0.25695,0.391437 -0.991404,4.04889 -0.785827,4.310022 z"/><path fill="none" stroke="#242424" stroke-width="5" d="m 70.40684,90.158048 c 29.72904,-5.350443 49.86341,-19.394999 61.60595,-41.918687 3.46885,7.098994 3.13477,16.651294 -1.02776,28.657005 14.72316,-4.045408 23.91818,-6.964297 30.95857,-22.702099"/><path fill="#ffe291" d="M 118.62582,28.821339 C 110.5062,23.209973 89.462065,21.617975 80.931384,29.004351 68.31521,39.940015 70.679133,36.025016 66.901995,52.572046 c -1.593063,6.94244 3.777138,13.623853 11.511272,13.545524 18.114892,-0.182176 35.664483,-7.386062 39.904143,-26.77794 0.35973,-1.644078 0.53961,-10.674636 -1.20763,-11.274916 z"/><path fill="#ffe9ad" d="m 103.49152,35.842109 c -3.957,-2.714334 -14.15793,-3.497313 -18.294795,0.103532 -6.115365,5.298154 -4.959121,3.393048 -6.809134,11.431575 -0.770818,3.366799 1.824337,6.603083 5.601517,6.550899 8.761966,-0.07843 17.292652,-3.575537 19.348192,-12.971284 0.15437,-0.809123 0.25695,-5.167744 -0.591,-5.480956 z"/><path fill="none" stroke="#242424" stroke-width="5" d="M87.690475 179.4494c5.839664 43.98325 53.372645 39.38113 58.208335.75596M73.34207 179.40647c8.623481 62.57702 78.81581 56.02937 85.95672 1.07554"/></g></svg>