<svg xmlns="http://www.w3.org/2000/svg" xmlns:xlink="http://www.w3.org/1999/xlink" data-name="Layer 1" viewBox="0 0 512 512"><defs><linearGradient id="a" x1="274.65" x2="274.65" y1="477.287" y2="21.706" gradientTransform="matrix(1 0 0 -1 0 514)" gradientUnits="userSpaceOnUse"><stop offset="0" stop-color="#00efd1"/><stop offset="1" stop-color="#00acea"/></linearGradient><linearGradient id="b" x1="418" x2="418" y1="477.287" y2="21.706" xlink:href="#a"/><linearGradient id="c" x1="256" x2="256" y1="477.287" y2="21.706" xlink:href="#a"/><linearGradient id="d" x1="94" x2="94" y1="477.287" y2="21.706" xlink:href="#a"/><linearGradient id="e" x1="326.869" x2="326.869" y1="477.287" y2="21.706" xlink:href="#a"/><linearGradient id="f" x1="409.131" x2="409.131" y1="477.287" y2="21.706" xlink:href="#a"/><linearGradient id="g" x1="366.8" x2="366.8" y1="477.287" y2="21.706" xlink:href="#a"/></defs><path fill="url(#a)" d="M256,217a61.557,61.557,0,0,0,57.6-39.9,32.97,32.97,0,1,0-9.4-59.8A61.533,61.533,0,1,0,256,217Zm0-16a45.6,45.6,0,0,1-43.7-32.8c21.8-5.5,32-19.2,36.9-30.4,8.7,15.9,22.9,33.5,44.9,42.8A45.839,45.839,0,0,1,256,201Zm65.9-72.9a17,17,0,0,1,0,34,17.59,17.59,0,0,1-4.6-.6,61.156,61.156,0,0,0-4.8-30.5A16.563,16.563,0,0,1,321.9,128.1Zm-20.3,27.3a44.209,44.209,0,0,1-1.2,10.4c-28-11.8-41-41.4-45.9-55.9H256A45.558,45.558,0,0,1,301.6,155.4Zm-63.5-41.9c.1,6.1-1.1,30.4-27.5,38.5A45.488,45.488,0,0,1,238.1,113.5Z"/><path fill="url(#b)" d="M418,169.9A50.9,50.9,0,1,0,367.1,119,50.979,50.979,0,0,0,418,169.9Zm0-85.7a34.9,34.9,0,1,1-34.9,34.9A34.932,34.932,0,0,1,418,84.2Z"/><path fill="url(#c)" d="M459.4,171.2h-4l-2.4,3.3a43.455,43.455,0,0,1-70,0l-2.4-3.3h-4A46.647,46.647,0,0,0,330,217.8v9.4a56.438,56.438,0,0,0-22.2-4.5h-4l-2.4,3.3a56.308,56.308,0,0,1-90.8,0l-2.4-3.3h-4a54.786,54.786,0,0,0-22.2,4.6v-9.4a46.647,46.647,0,0,0-46.6-46.6h-4l-2.4,3.3a43.455,43.455,0,0,1-70,0l-2.4-3.3h-4A46.5,46.5,0,0,0,6,217.8v83.7H148v80H283.8A88.2,88.2,0,0,0,357,443.2a80.23,80.23,0,0,0,11,.7,88.13,88.13,0,0,0,88-88,87.184,87.184,0,0,0-18.8-54.3H506V217.9A46.668,46.668,0,0,0,459.4,171.2ZM22,285.5V217.8a30.589,30.589,0,0,1,26.9-30.3,59.294,59.294,0,0,0,90.2,0A30.589,30.589,0,0,1,166,217.8v19.9a55.931,55.931,0,0,0-18,41.2v6.6Zm142,80V278.9a40.2,40.2,0,0,1,36.4-40,72.449,72.449,0,0,0,111.2,0,39.98,39.98,0,0,1,35.5,31.5A88.128,88.128,0,0,0,280,355.9c0,3.3.2,6.5.5,9.7H164Zm204,62.3a68.025,68.025,0,0,1-9-.6,72.086,72.086,0,0,1-63-71.4c0-35.3,26.3-65.9,61.1-71.2a78.786,78.786,0,0,1,10.9-.8,72,72,0,0,1,0,144ZM490,285.5H420.8A87.364,87.364,0,0,0,368,267.8c-1.7,0-3.4.1-5,.2a55.32,55.32,0,0,0-17-30.4V217.8a30.589,30.589,0,0,1,26.9-30.3,59.294,59.294,0,0,0,90.2,0A30.589,30.589,0,0,1,490,217.8Z"/><path fill="url(#d)" d="M94,169.9A50.9,50.9,0,1,0,43.1,119,50.979,50.979,0,0,0,94,169.9Zm0-85.7A34.9,34.9,0,1,1,59.1,119,34.932,34.932,0,0,1,94,84.2Z"/><path fill="url(#e)" d="M346.8,326.8a7.963,7.963,0,0,0-11.3-.9l-27.7,23.6a8.045,8.045,0,0,0,0,12.2l27.7,23.6a7.776,7.776,0,0,0,5.2,1.9,8.149,8.149,0,0,0,6.1-2.8,7.963,7.963,0,0,0-.9-11.3l-20.5-17.5,20.5-17.5A8.153,8.153,0,0,0,346.8,326.8Z"/><path fill="url(#f)" d="M389.2,326.8a7.963,7.963,0,0,0,.9,11.3l20.5,17.5L390.1,373a7.963,7.963,0,0,0-.9,11.3,7.815,7.815,0,0,0,6.1,2.8,7.961,7.961,0,0,0,5.2-1.9l27.7-23.6a8.045,8.045,0,0,0,0-12.2l-27.7-23.6A8.063,8.063,0,0,0,389.2,326.8Z"/><path fill="url(#g)" d="M377.1,307a8.069,8.069,0,0,0-9.5,6.2l-17.3,81.9a8.069,8.069,0,0,0,6.2,9.5,9.852,9.852,0,0,0,1.7.2,8,8,0,0,0,7.8-6.4l17.3-81.9A8.12,8.12,0,0,0,377.1,307Z"/></svg>