<?xml version="1.0" encoding="UTF-8"?><svg xmlns="http://www.w3.org/2000/svg" xmlns:xlink="http://www.w3.org/1999/xlink" version="1.1" x="0px" y="0px" viewBox="0 0 32 32" xml:space="preserve"><g id="Layer_7"><path fill="#999" d="M15.995.016c-8.837 0-16 7.163-16 16 0 8.836 7.163 16 16 16s16-7.164 16-16c0-8.837-7.164-16-16-16z"/><path fill="#FFF" d="M13.099 23.179l.784-3.334s.243-.952 1.292-.952c1.047 0 8.298.277 9.904-4.842.589-1.871.997-6.31-6.324-6.31h-5.287s-1.1-.05-1.371 1.09L8.64 23.378s-.148.912.797.912h2.36s1.089.059 1.302-1.111zm1.994-8.462l.702-2.957s.224-.804.946-.922c.722-.12 1.951.02 2.268.079 2.054.376 1.617 2.272 1.617 2.272-.407 2.926-5.075 2.519-5.075 2.519-.733-.257-.458-.991-.458-.991z"/></g><metadata><rdf:RDF xmlns:rdf="http://www.w3.org/1999/02/22-rdf-syntax-ns#" xmlns:rdfs="http://www.w3.org/2000/01/rdf-schema#" xmlns:dc="http://purl.org/dc/elements/1.1/"><rdf:Description about="https://iconscout.com/legal#licenses" dc:title="pay,pal,online,social,media" dc:description="pay,pal,online,social,media" dc:publisher="Iconscout" dc:date="2017-09-15" dc:format="image/svg+xml" dc:language="en"><dc:creator><rdf:Bag><rdf:li>Epicflaticon by Alfredo</rdf:li></rdf:Bag></dc:creator></rdf:Description></rdf:RDF></metadata></svg>