<?xml version="1.0" encoding="UTF-8"?><svg xmlns="http://www.w3.org/2000/svg" xmlns:xlink="http://www.w3.org/1999/xlink" version="1.1" id="Layer_1" x="0px" y="0px" viewBox="-49 141 512 512" xml:space="preserve"><style type="text/css">.st0{fill:none;} .st1{fill:url(#XMLID_2_);} .st2{fill:url(#XMLID_3_);} .st3{fill:url(#XMLID_4_);}</style><g id="XMLID_76_"><path id="XMLID_429_" class="st0" d="M188.1 588.3c-6.5 0-11.8 5.3-11.8 11.8s5.3 11.8 11.8 11.8 11.8-5.3 11.8-11.8-5.3-11.8-11.8-11.8z" fill="none"/><path id="XMLID_508_" class="st0" d="M329.8 588.3c-6.5 0-11.8 5.3-11.8 11.8s5.3 11.8 11.8 11.8 11.8-5.3 11.8-11.8-5.3-11.8-11.8-11.8z" fill="none"/><linearGradient id="XMLID_2_" gradientUnits="userSpaceOnUse" x1="-1" y1="345.7065" x2="455.7406" y2="345.7065"><stop offset="0" stop-color="#FF884B"/><stop offset="0.3498" stop-color="#FF634C"/><stop offset="0.6552" stop-color="#FE4A4F"/><stop offset="1" stop-color="#FE4840"/></linearGradient><path id="XMLID_509_" class="st1" d="M441.6 343c11 0 20-9 20-20s-9-20-20-20h-355c-.6 0-1.3 0-1.9.1l-24.3-63.9c-.1-.2-.1-.3-.2-.5-.1-.4-.3-.7-.5-1.1-.1-.3-.3-.5-.4-.8-.2-.3-.3-.6-.5-.9-.2-.3-.3-.5-.5-.8-.2-.3-.4-.6-.6-.8-.2-.3-.4-.5-.6-.8-.2-.2-.4-.5-.6-.7-.2-.3-.5-.5-.7-.7-.2-.2-.4-.4-.7-.6-.3-.2-.5-.5-.8-.7-.2-.2-.4-.4-.7-.5-.3-.2-.6-.4-.9-.7-.1-.1-.3-.2-.4-.3l-67.9-41.9c-9.4-5.8-21.7-2.9-27.5 6.5-5.8 9.4-2.9 21.7 6.5 27.5l62 38.4 87.4 229.9c1.3 9.8 9.7 17.3 19.8 17.3h266c11 0 20-9 20-20s-9-20-20-20H146.9l-16-42h291.6c11 0 20-9 20-20s-9-20-20-20H115.8l-16-42h341.8z" fill="url(#XMLID_2_)"/><linearGradient id="XMLID_3_" gradientUnits="userSpaceOnUse" x1="-1" y1="600.1" x2="455.7406" y2="600.1"><stop offset="0" stop-color="#FF884B"/><stop offset="0.3498" stop-color="#FF634C"/><stop offset="0.6552" stop-color="#FE4A4F"/><stop offset="1" stop-color="#FE4840"/></linearGradient><path id="XMLID_512_" class="st2" d="M188.1 548.3c-28.6 0-51.8 23.3-51.8 51.8s23.3 51.8 51.8 51.8 51.8-23.3 51.8-51.8-23.2-51.8-51.8-51.8zm0 63.7c-6.5 0-11.8-5.3-11.8-11.8s5.3-11.8 11.8-11.8 11.8 5.3 11.8 11.8-5.3 11.8-11.8 11.8z" fill="url(#XMLID_3_)"/><linearGradient id="XMLID_4_" gradientUnits="userSpaceOnUse" x1="-1" y1="600.1" x2="455.7406" y2="600.1"><stop offset="0" stop-color="#FF884B"/><stop offset="0.3498" stop-color="#FF634C"/><stop offset="0.6552" stop-color="#FE4A4F"/><stop offset="1" stop-color="#FE4840"/></linearGradient><path id="XMLID_517_" class="st3" d="M329.8 548.3c-28.6 0-51.8 23.3-51.8 51.8s23.3 51.8 51.8 51.8 51.8-23.3 51.8-51.8-23.2-51.8-51.8-51.8zm0 63.7c-6.5 0-11.8-5.3-11.8-11.8s5.3-11.8 11.8-11.8 11.8 5.3 11.8 11.8-5.3 11.8-11.8 11.8z" fill="url(#XMLID_4_)"/></g><metadata><rdf:RDF xmlns:rdf="http://www.w3.org/1999/02/22-rdf-syntax-ns#" xmlns:rdfs="http://www.w3.org/2000/01/rdf-schema#" xmlns:dc="http://purl.org/dc/elements/1.1/"><rdf:Description about="https://iconscout.com/legal#licenses" dc:title="solution,e-commerce" dc:description="solution,e-commerce" dc:publisher="Iconscout" dc:date="2018-04-25" dc:format="image/svg+xml" dc:language="en"><dc:creator><rdf:Bag><rdf:li>Neelpari Minimo</rdf:li></rdf:Bag></dc:creator></rdf:Description></rdf:RDF></metadata></svg>