<svg xmlns="http://www.w3.org/2000/svg" enable-background="new 0 0 66 66" viewBox="0 0 66 66"><path fill="#3459A7" d="M40.4316,18.5993c-0.054,0.119-0.1149,0.2312-0.1826,0.3359c-0.4816,0.7484-1.2991,1.1472-2.2486,1.2375
		c-0.0581,0.0062-0.117,0.0103-0.1758,0.0137l-0.9365-1.8333c0,0-0.7231,3.7556-0.4433,4.9712
		c0.1594,0.6909,0.2996,1.3688,0.4228,2.0228c-0.2661,0.0431-0.5062,0.0554-0.5062,0.0554
		c-0.1396,0.0219-0.2367,0.1416-0.2367,0.2757c0,0.0219,0.0027,0.0445,0.0082,0.067c0.0294,0.1218,0.1368,0.2086,0.262,0.2127
		c0.1779,0.0062,0.431,0.0246,0.5993,0.0794c0.0301,0.1724,0.0595,0.342,0.0869,0.5096c-0.353,0.5774-1.5015,1.3264-1.5015,1.3264
		s0.1327,0.2668,0.9338,0.2675c0.2127,0,0.485-0.0944,0.7771-0.2524c0.3721,2.5899,0.459,4.3808,0.459,4.3808
		c-3.6044,1.4311-8.2397,1.1315-13.1664,0c0,0,0.2572-2.7322,0.3475-5.4589c0.0075-0.0034,0.0144-0.0068,0.0212-0.0109
		c0.0137-0.0075,0.0267-0.0151,0.0383-0.0233c0.185-0.1324,0.0922-0.3534-0.0431-0.537c0.039-1.6384,0.0061-3.2042-0.1915-4.0955
		c-0.0609-0.2743-0.4918-1.009-0.4918-1.009c-0.0144,0.0034-0.0281,0.0068-0.0424,0.0096c-0.0253,0.0055-0.0506,0.0103-0.0752,0.015
		c-0.5979,0.1101-1.1889-0.015-1.7752-0.3543c-0.0684-0.0397-0.1368-0.0821-0.2059-0.1279
		c-0.0629-0.0417-0.1266-0.0862-0.1902-0.1334c0,0,0.2203-4.8658,1.1075-6.1526c1.3025-1.8874,4.6449-3.248,4.6756-3.248
		c0,0-0.1778,1.9626,0,2.5837c0.2812,0.983,1.8087,2.9039,2.83,2.9531c1.048,0.0513,2.4435-2.0974,2.8793-3.0517
		c0.3037-0.6635,0.2955-2.9039,0.2955-2.9039s3.3821,1.2717,4.2577,2.0673C39.6442,14.2684,40.4316,18.5993,40.4316,18.5993z"/><path fill="#0E151F" d="M39.0024 59.6325c0 0-.5075 1.8268-.1128 2.4965.1899.3222.9054.7128 1.1473 1.0623.3176.459.3424 1.5563 1.4294 1.7148.6866.1001 2.2672.2563 2.571-.3675.3503-.7195-.646-1.6233-.8499-2.1688-.2812-.752-.4677-2.7373-.4677-2.7373l-1.7742-.831L39.0024 59.6325zM32.9805 58.9617c0 0 .9575 1.5786.6224 2.2246-.2038.3928-1.1158.7348-1.3864 1.0811-.3962.5071-.4678 1.6094-2.0135 1.6036-.6146-.0023-2.2141-.0729-2.3549-.6712-.1272-.5404 1.1767-1.5759 1.46-2.1356.2659-.5255.2891-2.1025.2891-2.1025H32.9805z"/><path fill="#A4B1BE" d="M42.779,59.7791c-0.9426,0.5588-2.3605,0.405-3.8144,0l-6.0465-22.4157h-0.8079l0.8702,21.5982
		c-1.1231,0.7324-2.2508,0.7556-3.3834,0c0,0-5.5896-25.5029-5.0136-26.6925c4.9267,1.1315,9.562,1.4311,13.1664,0
		C39.8575,34.6866,42.779,59.7791,42.779,59.7791z"/><path fill="#3459A7" d="M36.1329 25.7451c-.0055-.0226-.0082-.0451-.0082-.067 0-.1341.0971-.2538.2367-.2757 0 0 .2401-.0123.5062-.0554.0445.2333.0869.4638.1265.6902-.1683-.0547-.4214-.0732-.5993-.0794C36.2697 25.9538 36.1623 25.8669 36.1329 25.7451zM37.2904 27.8883c-.2921.158-.5644.2524-.7771.2524-.8011-.0007-.9338-.2675-.9338-.2675s1.1486-.7491 1.5015-1.3264C37.1597 27.0127 37.2288 27.4615 37.2904 27.8883z"/><path fill="#F6A98D" d="M33.4676,13.6281c-0.4358,0.9543-1.8313,3.103-2.8793,3.0517c-1.0213-0.0493-2.5489-1.9701-2.83-2.9531
		c-0.1779-0.6211,0-2.5837,0-2.5837c0.8811-0.3961,0.5869-1.2854,0.5705-1.3326h0.0007c0.0349,0.0458,0.6478,0.8257,1.7786,0.7128
		c1.0856-0.1081,2.2095-1.873,2.2444-1.9277l0.0007-0.0014c-0.1163,2.1788,1.4099,2.1302,1.4099,2.1302
		S33.7713,12.9646,33.4676,13.6281z"/><path fill="#0E151F" d="M33.4744,5.6122c0.0096,1.3209-0.3516,2.4586-1.1273,3.2261c0,0-0.0007-0.0828-0.0048-0.2264
		c-0.0274-0.955-0.1922-4.5922-1.1383-4.2543c-1.0295,0.3673-2.8102,1.1636-3.9854,1.7759
		c-0.0075,0.0041-0.0157,0.0089-0.0232,0.0144c-0.2914,0.2114-0.2538,1.3866-0.2538,1.3866l-0.1792-0.065
		c-0.2825-1.1465-0.6896-2.1959-0.3167-3.6584c0.6553-2.5749,3.1515-3.6728,5.3672-2.044
		C32.897,2.5646,33.4621,3.9594,33.4744,5.6122z"/><path fill="#F7B198" d="M32.3423,8.6118c-0.1211,0.1868-1.1951,1.808-2.2342,1.9113c-1.1308,0.1129-1.7437-0.667-1.7786-0.7128
		h-0.0007c0-0.0007,0-0.0007,0-0.0007C28.3281,9.809,28.3281,9.809,28.3281,9.809c-0.2189-0.6293-1.193-1.5091-1.3866-2.2745
		c0,0-0.0376-1.1752,0.2538-1.3866c0.0075-0.0055,0.015-0.0103,0.0232-0.0144c1.1753-0.6122,2.9559-1.4085,3.9854-1.7759
		C32.15,4.0196,32.3149,7.6569,32.3423,8.6118z"/><path fill="#3459A7" d="M24.9308,26.8102c0.0062-0.1909,0.0116-0.3817,0.0164-0.5712
		C25.0902,26.4278,25.1962,26.6844,24.9308,26.8102z"/><path fill="#FFC131" d="M25.0895,26.5311c-0.1005,0.0064-0.8653,0.0549-0.7648,0.0486c-0.0033-0.1006-0.0403-1.2191-0.0369-1.1185
		C24.4247,25.9038,25.0219,26.1079,25.0895,26.5311z"/><path fill="#CEDDED" d="M37.0615,25.7718l-11.972,0.7593c-0.0669-0.4188-0.6688-0.6403-0.8017-1.0699l-0.0841-2.5564
		l-0.0575-1.7458l-0.091-2.7767l12.4871-0.7887L37.0615,25.7718z"/><path fill="#273240" d="M36.8391,25.5788l-9,0.5699l-0.13,0.01l-0.12,0.01c-0.1025,0.0063-3.1808,0.1969-3.07,0.1901l-0.25-7.78
		l2.6801-0.17l0.1299-0.01l0.13-0.01l1.58-0.1l0.14-0.01h0.12l7.3-0.47L36.8391,25.5788z"/><path fill="#A4B1BE" d="M37.1591 26.1387c-.03-.0399-.09-.0699-.17-.1-.16-.0601-.42-.0701-.59-.0801-.1 0-.19-.0499-.24-.1399l.9-.05L37.1591 26.1387zM24.9892 26.7787c-.01.01-.02.01-.04.02 0 0-.01.01-.02.01-.1619.0811-.5093-.2328-.61-.3v-.04l.74-.0399c0 .01.01.02.01.0299C25.111 26.5428 25.1019 26.6941 24.9892 26.7787z"/><path fill="#F7B198" d="M40.9892,22.2587c-0.17,1.6201-1.41,2.53-1.65,3.4301c-0.2,0.76-1.21,1.74-2.05,2.2
		c-0.29,0.16-0.56,0.25-0.78,0.25c-0.56,0-0.79-0.13-0.88-0.21l1.59-0.14c0.19-0.01,0.32-0.2,0.27-0.39
		c-0.4022-1.5827-0.2866-1.1498-0.32-1.25c0,0,0-0.01-0.01-0.01c-0.03-0.0399-0.09-0.0699-0.17-0.1
		c-0.16-0.0601-0.42-0.0701-0.59-0.0801c-0.1,0-0.19-0.0499-0.24-0.1399c-0.01-0.02-0.02-0.04-0.03-0.0701v-0.0699
		c0-0.13,0.09-0.25,0.23-0.28c0,0,0.24-0.01,0.51-0.0499c0.3-0.05,0.64-0.1401,0.69-0.29c0.47-1.3401,1-2.53,1.07-3.3201
		c0.04-0.3599-0.39-1.1599-0.63-1.5699c0.95-0.09,1.77-0.49,2.25-1.23C40.6692,19.4587,41.0692,21.4687,40.9892,22.2587z"/><path fill="#A4B1BE" d="M37.2191,27.7887l-1.59,0.14l-10.84,0.92h-0.07c-0.17-0.02-0.3-0.15-0.31-0.3301l-0.06-1.36l-0.03-0.65
		c0.1025,0.0685,0.4473,0.3815,0.61,0.3c0.01,0,0.02-0.01,0.02-0.01c0.02-0.01,0.03-0.01,0.04-0.02
		c0.1127-0.0846,0.1218-0.2359,0.08-0.3201c0-0.0099-0.01-0.0199-0.01-0.0299l11.1-0.61c0.05,0.09,0.14,0.1399,0.24,0.1399
		c0.17,0.01,0.43,0.02,0.59,0.0801c0.08,0.03,0.14,0.0601,0.17,0.1c0.0266,0.1018,0.3564,1.3619,0.33,1.26
		C37.5392,27.5888,37.4091,27.7787,37.2191,27.7887z"/><path fill="#A4B1BE" d="M37.2191,27.7887l-1.59,0.14l-10.84,0.92h-0.07c-0.17-0.02-0.3-0.15-0.31-0.3301l-0.06-1.36l-0.03-0.65
		c0.1025,0.0685,0.4473,0.3815,0.61,0.3c0.01,0,0.02-0.01,0.02-0.01c0.02-0.01,0.03-0.01,0.04-0.02
		c0.1127-0.0846,0.1218-0.2359,0.08-0.3201c0-0.0099-0.01-0.0199-0.01-0.0299l11.1-0.61c0.05,0.09,0.14,0.1399,0.24,0.1399
		c0.17,0.01,0.43,0.02,0.59,0.0801c0.08,0.03,0.14,0.0601,0.17,0.1c0.0266,0.1018,0.3564,1.3619,0.33,1.26
		C37.5392,27.5888,37.4091,27.7787,37.2191,27.7887z"/><path fill="#F7B198" d="M24.9892,26.7787c-0.01,0.01-0.02,0.01-0.04,0.02c0,0-0.01,0.01-0.02,0.01
		c-0.166,0.0831-0.5002-0.2344-0.74-0.42c-0.03,0.1801,0.05,0.4601,0.16,0.77l0.06,1.36c0.01,0.1801,0.14,0.3101,0.31,0.3301
		c-0.03,0.03-0.07,0.0399-0.11,0.0499c-0.26,0-1.38-2.3199-1.48-2.66c-0.32-1.1199-1.21-2.6099-1.2401-3.52
		c-0.0099-0.3899,0.19-1.58,0.28-2.0399c0.07,0.0399,0.13,0.09,0.2,0.13c0.59,0.34,1.18,0.46,1.78,0.35l0.05,1.75
		c-0.5595,2.8223,0.691,3.083,0.8,3.41l0.02,0.03c0.01,0.02,0.03,0.0499,0.04,0.08c0,0.01,0.01,0.02,0.01,0.0299
		C25.111,26.5428,25.1019,26.6941,24.9892,26.7787z"/><polygon fill="#0E151F" points="36.395 25.958 36.844 27.211 24.954 28.209 24.821 26.816"/><g opacity=".1"><line x1="27.079" x2="25.869" y1="18.399" y2="26.269" fill="none"/><polygon fill="#E1EAF3" points="27.209 18.389 25.999 26.269 25.869 26.269 25.749 26.279 26.949 18.409 27.079 18.399"/></g><g opacity=".1"><line x1="28.929" x2="27.709" y1="18.279" y2="26.159" fill="none"/><polygon fill="#E1EAF3" points="29.049 18.279 27.839 26.149 27.709 26.159 27.589 26.169 28.789 18.289 28.929 18.279"/></g></svg>